<mxfile host="app.diagrams.net" modified="2023-04-19T13:29:19.847Z" agent="Mozilla/5.0 (Windows NT 10.0; Win64; x64) AppleWebKit/537.36 (KHTML, like Gecko) Chrome/112.0.0.0 Safari/537.36 Edg/112.0.1722.48" etag="1ynIw3hS5o8az905rLYJ" version="21.1.8" type="github">
  <diagram name="Page-1" id="hk1BvOEl4WMOT0wOxiht">
    <mxGraphModel dx="977" dy="1570" grid="1" gridSize="10" guides="1" tooltips="1" connect="1" arrows="1" fold="1" page="1" pageScale="1" pageWidth="850" pageHeight="1100" math="0" shadow="0">
      <root>
        <mxCell id="0" />
        <mxCell id="1" parent="0" />
        <mxCell id="-9uxcYsDGzvSDhxlpOZ2-5" value="" style="whiteSpace=wrap;html=1;aspect=fixed;" parent="1" vertex="1">
          <mxGeometry x="110" y="50" width="80" height="80" as="geometry" />
        </mxCell>
        <mxCell id="-9uxcYsDGzvSDhxlpOZ2-7" value="" style="endArrow=classic;html=1;rounded=0;exitX=0.5;exitY=1;exitDx=0;exitDy=0;" parent="1" source="-9uxcYsDGzvSDhxlpOZ2-5" edge="1">
          <mxGeometry width="50" height="50" relative="1" as="geometry">
            <mxPoint x="110" y="220" as="sourcePoint" />
            <mxPoint x="150" y="180" as="targetPoint" />
          </mxGeometry>
        </mxCell>
        <mxCell id="-9uxcYsDGzvSDhxlpOZ2-9" value="" style="whiteSpace=wrap;html=1;aspect=fixed;" parent="1" vertex="1">
          <mxGeometry x="110" y="180" width="80" height="80" as="geometry" />
        </mxCell>
        <mxCell id="-9uxcYsDGzvSDhxlpOZ2-10" value="" style="endArrow=classic;html=1;rounded=0;entryX=0;entryY=0.5;entryDx=0;entryDy=0;entryPerimeter=0;" parent="1" target="-9uxcYsDGzvSDhxlpOZ2-12" edge="1">
          <mxGeometry width="50" height="50" relative="1" as="geometry">
            <mxPoint x="150" y="260" as="sourcePoint" />
            <mxPoint x="220" y="300" as="targetPoint" />
            <Array as="points">
              <mxPoint x="150" y="370" />
            </Array>
          </mxGeometry>
        </mxCell>
        <mxCell id="-9uxcYsDGzvSDhxlpOZ2-12" value="" style="whiteSpace=wrap;html=1;aspect=fixed;" parent="1" vertex="1">
          <mxGeometry x="230" y="330" width="80" height="80" as="geometry" />
        </mxCell>
        <mxCell id="-9uxcYsDGzvSDhxlpOZ2-13" value="" style="endArrow=classic;html=1;rounded=0;exitX=1;exitY=0.5;exitDx=0;exitDy=0;entryX=0;entryY=0.5;entryDx=0;entryDy=0;" parent="1" source="-9uxcYsDGzvSDhxlpOZ2-12" target="-9uxcYsDGzvSDhxlpOZ2-14" edge="1">
          <mxGeometry width="50" height="50" relative="1" as="geometry">
            <mxPoint x="360" y="325" as="sourcePoint" />
            <mxPoint x="370" y="300" as="targetPoint" />
          </mxGeometry>
        </mxCell>
        <mxCell id="-9uxcYsDGzvSDhxlpOZ2-14" value="" style="whiteSpace=wrap;html=1;aspect=fixed;" parent="1" vertex="1">
          <mxGeometry x="370" y="330" width="80" height="80" as="geometry" />
        </mxCell>
        <mxCell id="-9uxcYsDGzvSDhxlpOZ2-18" value="" style="endArrow=classic;html=1;rounded=0;" parent="1" edge="1">
          <mxGeometry width="50" height="50" relative="1" as="geometry">
            <mxPoint x="450" y="369.5" as="sourcePoint" />
            <mxPoint x="530" y="369.5" as="targetPoint" />
          </mxGeometry>
        </mxCell>
        <mxCell id="-9uxcYsDGzvSDhxlpOZ2-19" value="GIT" style="text;html=1;strokeColor=none;fillColor=none;align=center;verticalAlign=middle;whiteSpace=wrap;rounded=0;" parent="1" vertex="1">
          <mxGeometry x="120" y="-45" width="60" height="30" as="geometry" />
        </mxCell>
        <mxCell id="-9uxcYsDGzvSDhxlpOZ2-20" value="MAVEN" style="text;html=1;strokeColor=none;fillColor=none;align=center;verticalAlign=middle;whiteSpace=wrap;rounded=0;" parent="1" vertex="1">
          <mxGeometry x="240" y="355" width="60" height="30" as="geometry" />
        </mxCell>
        <mxCell id="-9uxcYsDGzvSDhxlpOZ2-21" value="SONARQUBE" style="text;html=1;strokeColor=none;fillColor=none;align=center;verticalAlign=middle;whiteSpace=wrap;rounded=0;" parent="1" vertex="1">
          <mxGeometry x="120" y="205" width="60" height="30" as="geometry" />
        </mxCell>
        <mxCell id="-9uxcYsDGzvSDhxlpOZ2-22" value="DOCKER" style="text;html=1;strokeColor=none;fillColor=none;align=center;verticalAlign=middle;whiteSpace=wrap;rounded=0;" parent="1" vertex="1">
          <mxGeometry x="380" y="355" width="60" height="30" as="geometry" />
        </mxCell>
        <mxCell id="-9uxcYsDGzvSDhxlpOZ2-23" value="ECR" style="text;html=1;strokeColor=none;fillColor=none;align=center;verticalAlign=middle;whiteSpace=wrap;rounded=0;" parent="1" vertex="1">
          <mxGeometry x="540" y="205" width="60" height="30" as="geometry" />
        </mxCell>
        <mxCell id="-9uxcYsDGzvSDhxlpOZ2-24" value="CI WORK FLOW WITH JENKINS TOOL" style="text;html=1;strokeColor=none;fillColor=none;align=center;verticalAlign=middle;whiteSpace=wrap;rounded=0;" parent="1" vertex="1">
          <mxGeometry x="130" y="-130" width="650" height="30" as="geometry" />
        </mxCell>
        <mxCell id="-9uxcYsDGzvSDhxlpOZ2-27" value="" style="endArrow=classic;startArrow=classic;html=1;rounded=0;entryX=0;entryY=0.75;entryDx=0;entryDy=0;exitX=1;exitY=0;exitDx=0;exitDy=0;" parent="1" source="-9uxcYsDGzvSDhxlpOZ2-14" target="-9uxcYsDGzvSDhxlpOZ2-23" edge="1">
          <mxGeometry width="50" height="50" relative="1" as="geometry">
            <mxPoint x="450" y="260" as="sourcePoint" />
            <mxPoint x="526.48" y="229" as="targetPoint" />
          </mxGeometry>
        </mxCell>
        <mxCell id="-9uxcYsDGzvSDhxlpOZ2-43" value="" style="edgeStyle=orthogonalEdgeStyle;rounded=0;orthogonalLoop=1;jettySize=auto;html=1;" parent="1" source="-9uxcYsDGzvSDhxlpOZ2-29" target="-9uxcYsDGzvSDhxlpOZ2-40" edge="1">
          <mxGeometry relative="1" as="geometry" />
        </mxCell>
        <mxCell id="-9uxcYsDGzvSDhxlpOZ2-29" value="" style="whiteSpace=wrap;html=1;aspect=fixed;" parent="1" vertex="1">
          <mxGeometry x="530" y="330" width="80" height="80" as="geometry" />
        </mxCell>
        <mxCell id="-9uxcYsDGzvSDhxlpOZ2-30" value="ECR" style="ellipse;whiteSpace=wrap;html=1;" parent="1" vertex="1">
          <mxGeometry x="540" y="195" width="60" height="50" as="geometry" />
        </mxCell>
        <mxCell id="-9uxcYsDGzvSDhxlpOZ2-35" value="" style="endArrow=classic;startArrow=classic;html=1;rounded=0;entryX=0.5;entryY=1;entryDx=0;entryDy=0;" parent="1" target="-9uxcYsDGzvSDhxlpOZ2-30" edge="1">
          <mxGeometry width="50" height="50" relative="1" as="geometry">
            <mxPoint x="570" y="330" as="sourcePoint" />
            <mxPoint x="610" y="280" as="targetPoint" />
          </mxGeometry>
        </mxCell>
        <mxCell id="-9uxcYsDGzvSDhxlpOZ2-36" value="" style="shape=hexagon;perimeter=hexagonPerimeter2;whiteSpace=wrap;html=1;fixedSize=1;" parent="1" vertex="1">
          <mxGeometry x="90" y="-70" width="120" height="80" as="geometry" />
        </mxCell>
        <mxCell id="-9uxcYsDGzvSDhxlpOZ2-37" value="" style="endArrow=classic;html=1;rounded=0;entryX=0.5;entryY=0;entryDx=0;entryDy=0;" parent="1" target="-9uxcYsDGzvSDhxlpOZ2-5" edge="1">
          <mxGeometry width="50" height="50" relative="1" as="geometry">
            <mxPoint x="150" y="10" as="sourcePoint" />
            <mxPoint x="200" y="-40" as="targetPoint" />
          </mxGeometry>
        </mxCell>
        <mxCell id="-9uxcYsDGzvSDhxlpOZ2-38" value="JENKINS" style="text;html=1;strokeColor=none;fillColor=none;align=center;verticalAlign=middle;whiteSpace=wrap;rounded=0;" parent="1" vertex="1">
          <mxGeometry x="120" y="75" width="60" height="30" as="geometry" />
        </mxCell>
        <mxCell id="-9uxcYsDGzvSDhxlpOZ2-39" value="CD PIPELINE TRIGGER" style="text;html=1;strokeColor=none;fillColor=none;align=center;verticalAlign=middle;whiteSpace=wrap;rounded=0;" parent="1" vertex="1">
          <mxGeometry x="540" y="355" width="60" height="30" as="geometry" />
        </mxCell>
        <mxCell id="-9uxcYsDGzvSDhxlpOZ2-40" value="" style="shape=hexagon;perimeter=hexagonPerimeter2;whiteSpace=wrap;html=1;fixedSize=1;" parent="1" vertex="1">
          <mxGeometry x="510" y="470" width="120" height="80" as="geometry" />
        </mxCell>
        <mxCell id="-9uxcYsDGzvSDhxlpOZ2-44" value="ARGOCD" style="text;html=1;strokeColor=none;fillColor=none;align=center;verticalAlign=middle;whiteSpace=wrap;rounded=0;" parent="1" vertex="1">
          <mxGeometry x="540" y="495" width="60" height="30" as="geometry" />
        </mxCell>
        <mxCell id="-9uxcYsDGzvSDhxlpOZ2-45" value="EKS&lt;br&gt;CLUSTER" style="whiteSpace=wrap;html=1;aspect=fixed;" parent="1" vertex="1">
          <mxGeometry x="720" y="470" width="80" height="80" as="geometry" />
        </mxCell>
        <mxCell id="-9uxcYsDGzvSDhxlpOZ2-46" value="" style="endArrow=classic;startArrow=classic;html=1;rounded=0;exitX=1;exitY=0.5;exitDx=0;exitDy=0;" parent="1" source="-9uxcYsDGzvSDhxlpOZ2-40" edge="1">
          <mxGeometry width="50" height="50" relative="1" as="geometry">
            <mxPoint x="640" y="520" as="sourcePoint" />
            <mxPoint x="720" y="510" as="targetPoint" />
            <Array as="points" />
          </mxGeometry>
        </mxCell>
        <mxCell id="Ls0QbOeo3eO3yRqtVBlT-1" value="GIT" style="text;html=1;strokeColor=none;fillColor=none;align=center;verticalAlign=middle;whiteSpace=wrap;rounded=0;" vertex="1" parent="1">
          <mxGeometry x="120" y="-40" width="60" height="30" as="geometry" />
        </mxCell>
      </root>
    </mxGraphModel>
  </diagram>
</mxfile>
